<mxfile host="app.diagrams.net" modified="2022-02-02T11:31:26.910Z" agent="5.0 (X11; Linux x86_64) AppleWebKit/537.36 (KHTML, like Gecko) Chrome/98.0.4758.80 Safari/537.36" etag="OTV5dv9wvMWt0_bqGvLl" version="16.4.11" type="github">
  <diagram id="6a731a19-8d31-9384-78a2-239565b7b9f0" name="Page-1">
    <mxGraphModel dx="3871" dy="2377" grid="1" gridSize="10" guides="1" tooltips="1" connect="1" arrows="1" fold="1" page="1" pageScale="1" pageWidth="4681" pageHeight="3300" background="none" math="0" shadow="1">
      <root>
        <mxCell id="0" />
        <mxCell id="1" parent="0" />
        <mxCell id="_q4PwhRryI1n4HFh4pQv-2328" style="edgeStyle=orthogonalEdgeStyle;shape=link;rounded=0;orthogonalLoop=1;jettySize=auto;html=1;strokeWidth=4;" edge="1" parent="1" source="_q4PwhRryI1n4HFh4pQv-2317" target="_q4PwhRryI1n4HFh4pQv-2323">
          <mxGeometry relative="1" as="geometry" />
        </mxCell>
        <mxCell id="_q4PwhRryI1n4HFh4pQv-2329" style="edgeStyle=orthogonalEdgeStyle;shape=link;rounded=0;orthogonalLoop=1;jettySize=auto;html=1;entryX=0.5;entryY=1;entryDx=0;entryDy=0;strokeWidth=4;sketch=0;shadow=0;" edge="1" parent="1" source="_q4PwhRryI1n4HFh4pQv-2317" target="_q4PwhRryI1n4HFh4pQv-2318">
          <mxGeometry relative="1" as="geometry" />
        </mxCell>
        <mxCell id="_q4PwhRryI1n4HFh4pQv-2317" value="FOI" style="ellipse;whiteSpace=wrap;html=1;shadow=0;fontFamily=Helvetica;fontSize=30;fontColor=#2F5B7C;align=center;strokeColor=#2F5B7C;strokeWidth=6;fillColor=#FFFFFF;fontStyle=1;gradientColor=none;" vertex="1" parent="1">
          <mxGeometry x="2205" y="1515" width="270" height="270" as="geometry" />
        </mxCell>
        <mxCell id="_q4PwhRryI1n4HFh4pQv-2318" value="Uppsats" style="ellipse;whiteSpace=wrap;html=1;shadow=0;fontFamily=Helvetica;fontSize=30;align=center;strokeColor=#82b366;strokeWidth=6;fillColor=#d5e8d4;fontStyle=1;" vertex="1" parent="1">
          <mxGeometry x="2205" y="580" width="270" height="270" as="geometry" />
        </mxCell>
        <mxCell id="_q4PwhRryI1n4HFh4pQv-2327" style="edgeStyle=orthogonalEdgeStyle;shape=link;rounded=0;orthogonalLoop=1;jettySize=auto;html=1;strokeWidth=4;" edge="1" parent="1" source="_q4PwhRryI1n4HFh4pQv-2322" target="_q4PwhRryI1n4HFh4pQv-2317">
          <mxGeometry relative="1" as="geometry" />
        </mxCell>
        <mxCell id="_q4PwhRryI1n4HFh4pQv-2322" value="Blog" style="ellipse;whiteSpace=wrap;html=1;shadow=0;fontFamily=Helvetica;fontSize=30;align=center;strokeColor=#d6b656;strokeWidth=6;fillColor=#fff2cc;fontStyle=1;" vertex="1" parent="1">
          <mxGeometry x="3610" y="1515" width="270" height="270" as="geometry" />
        </mxCell>
        <mxCell id="_q4PwhRryI1n4HFh4pQv-2331" style="edgeStyle=orthogonalEdgeStyle;shape=link;rounded=0;sketch=0;orthogonalLoop=1;jettySize=auto;html=1;entryX=1;entryY=0.5;entryDx=0;entryDy=0;shadow=0;strokeWidth=4;" edge="1" parent="1" source="_q4PwhRryI1n4HFh4pQv-2323" target="_q4PwhRryI1n4HFh4pQv-2330">
          <mxGeometry relative="1" as="geometry" />
        </mxCell>
        <mxCell id="_q4PwhRryI1n4HFh4pQv-2323" value="Simulator" style="ellipse;whiteSpace=wrap;html=1;shadow=0;fontFamily=Helvetica;fontSize=30;align=center;strokeColor=#6c8ebf;strokeWidth=6;fillColor=#dae8fc;fontStyle=1;" vertex="1" parent="1">
          <mxGeometry x="2206" y="2420" width="270" height="270" as="geometry" />
        </mxCell>
        <mxCell id="_q4PwhRryI1n4HFh4pQv-2330" value="Unity" style="ellipse;whiteSpace=wrap;html=1;shadow=0;fontFamily=Helvetica;fontSize=30;align=center;strokeColor=#6c8ebf;strokeWidth=6;fillColor=#dae8fc;fontStyle=1;" vertex="1" parent="1">
          <mxGeometry x="1070" y="2435" width="240" height="240" as="geometry" />
        </mxCell>
      </root>
    </mxGraphModel>
  </diagram>
</mxfile>
